# xmcd CD database file
#
# Track frame offsets:
#	150
#	19415
#	39376
#	62390
#	80538
#	99958
#	121618
#	144316
#	166159
#	188484
#	208249
#	230932
#
# Disc length: 3346 seconds
#
# Revision: 0
# Processed by: cddbd v1.4PL0 Copyright (c) Steve Scherf et al.
# Submitted via: CDex 1.51
#
DISCID=950d100c
DTITLE=Various Artist - Absolute New Age
DYEAR=1998
DGENRE=New Age
TTITLE0=Feather, Stone and Light by R. Carlos Nakai, William Eaton and Will Clipman
TTITLE1=Imaginary Islands by Shadowfax
TTITLE2=Midnight Swim by Craig Chaquico
TTITLE3=A Day To Remember by Jonathan Cain
TTITLE4=Geronimo's Laughter by Cusco
TTITLE5=Wind Walker by John Serrie
TTITLE6=DeProvundis by Pete Bardens
TTITLE7=Starry, Starry Night by Lorie Line
TTITLE8=It's About Time by Fatburger
TTITLE9=Librarsi by Marcome
TTITLE10=Night Hawk's Dream by Keiko Matsui
TTITLE11=Still the Faith by Michael Powell
EXTD=YEAR: 1998
EXTT0=
EXTT1=
EXTT2=
EXTT3=
EXTT4=
EXTT5=
EXTT6=
EXTT7=
EXTT8=
EXTT9=
EXTT10=
EXTT11=
PLAYORDER=
